<mxfile host="app.diagrams.net" agent="Mozilla/5.0 (Macintosh; Intel Mac OS X 10_15_7) AppleWebKit/537.36 (KHTML, like Gecko) Chrome/131.0.0.0 Safari/537.36" version="25.0.3">
  <diagram name="Page-1" id="3JmRyVbFIATGD4DklPU-">
    <mxGraphModel dx="1314" dy="787" grid="1" gridSize="10" guides="1" tooltips="1" connect="1" arrows="1" fold="1" page="1" pageScale="1" pageWidth="850" pageHeight="1100" math="0" shadow="0">
      <root>
        <mxCell id="0" />
        <mxCell id="1" parent="0" />
        <mxCell id="6FosMGZivHRgjgasGcRN-1" value="&lt;span style=&quot;color: rgb(0, 0, 0); font-family: Helvetica; font-size: 12px; font-style: normal; font-variant-ligatures: normal; font-variant-caps: normal; font-weight: 400; letter-spacing: normal; orphans: 2; text-align: center; text-indent: 0px; text-transform: none; widows: 2; word-spacing: 0px; -webkit-text-stroke-width: 0px; white-space: normal; background-color: rgb(251, 251, 251); text-decoration-thickness: initial; text-decoration-style: initial; text-decoration-color: initial; display: inline !important; float: none;&quot;&gt;Seller&#39;s documents component&lt;/span&gt;" style="swimlane;whiteSpace=wrap;html=1;" vertex="1" parent="1">
          <mxGeometry x="55" y="280" width="740" height="180" as="geometry" />
        </mxCell>
        <mxCell id="6FosMGZivHRgjgasGcRN-12" value="&lt;meta charset=&quot;utf-8&quot;&gt;&lt;span style=&quot;color: rgb(0, 0, 0); font-family: Helvetica; font-size: 12px; font-style: normal; font-variant-ligatures: normal; font-variant-caps: normal; font-weight: 400; letter-spacing: normal; orphans: 2; text-align: center; text-indent: 0px; text-transform: none; widows: 2; word-spacing: 0px; -webkit-text-stroke-width: 0px; white-space: normal; background-color: rgb(251, 251, 251); text-decoration-thickness: initial; text-decoration-style: initial; text-decoration-color: initial; display: inline !important; float: none;&quot;&gt;Document card&lt;/span&gt;" style="rounded=1;whiteSpace=wrap;html=1;" vertex="1" parent="6FosMGZivHRgjgasGcRN-1">
          <mxGeometry x="275" y="65" width="245" height="40" as="geometry" />
        </mxCell>
        <mxCell id="6FosMGZivHRgjgasGcRN-15" value="&lt;meta charset=&quot;utf-8&quot;&gt;&lt;span style=&quot;color: rgb(0, 0, 0); font-family: Helvetica; font-size: 12px; font-style: normal; font-variant-ligatures: normal; font-variant-caps: normal; font-weight: 400; letter-spacing: normal; orphans: 2; text-align: center; text-indent: 0px; text-transform: none; widows: 2; word-spacing: 0px; -webkit-text-stroke-width: 0px; white-space: normal; background-color: rgb(251, 251, 251); text-decoration-thickness: initial; text-decoration-style: initial; text-decoration-color: initial; display: inline !important; float: none;&quot;&gt;Document card&lt;/span&gt;" style="rounded=1;whiteSpace=wrap;html=1;" vertex="1" parent="6FosMGZivHRgjgasGcRN-1">
          <mxGeometry x="285" y="75" width="245" height="40" as="geometry" />
        </mxCell>
        <mxCell id="6FosMGZivHRgjgasGcRN-16" value="&lt;meta charset=&quot;utf-8&quot;&gt;&lt;span style=&quot;color: rgb(0, 0, 0); font-family: Helvetica; font-size: 12px; font-style: normal; font-variant-ligatures: normal; font-variant-caps: normal; font-weight: 400; letter-spacing: normal; orphans: 2; text-align: center; text-indent: 0px; text-transform: none; widows: 2; word-spacing: 0px; -webkit-text-stroke-width: 0px; white-space: normal; background-color: rgb(251, 251, 251); text-decoration-thickness: initial; text-decoration-style: initial; text-decoration-color: initial; display: inline !important; float: none;&quot;&gt;Document card&lt;/span&gt;" style="rounded=1;whiteSpace=wrap;html=1;" vertex="1" parent="6FosMGZivHRgjgasGcRN-1">
          <mxGeometry x="295" y="85" width="245" height="40" as="geometry" />
        </mxCell>
        <mxCell id="6FosMGZivHRgjgasGcRN-17" value="&lt;meta charset=&quot;utf-8&quot;&gt;&lt;span style=&quot;color: rgb(0, 0, 0); font-family: Helvetica; font-size: 12px; font-style: normal; font-variant-ligatures: normal; font-variant-caps: normal; font-weight: 400; letter-spacing: normal; orphans: 2; text-align: center; text-indent: 0px; text-transform: none; widows: 2; word-spacing: 0px; -webkit-text-stroke-width: 0px; white-space: normal; background-color: rgb(251, 251, 251); text-decoration-thickness: initial; text-decoration-style: initial; text-decoration-color: initial; display: inline !important; float: none;&quot;&gt;Document card&lt;/span&gt;" style="rounded=1;whiteSpace=wrap;html=1;" vertex="1" parent="6FosMGZivHRgjgasGcRN-1">
          <mxGeometry x="305" y="95" width="245" height="40" as="geometry" />
        </mxCell>
        <mxCell id="6FosMGZivHRgjgasGcRN-18" value="&lt;meta charset=&quot;utf-8&quot;&gt;&lt;span style=&quot;color: rgb(0, 0, 0); font-family: Helvetica; font-size: 12px; font-style: normal; font-variant-ligatures: normal; font-variant-caps: normal; font-weight: 400; letter-spacing: normal; orphans: 2; text-align: center; text-indent: 0px; text-transform: none; widows: 2; word-spacing: 0px; -webkit-text-stroke-width: 0px; white-space: normal; background-color: rgb(251, 251, 251); text-decoration-thickness: initial; text-decoration-style: initial; text-decoration-color: initial; display: inline !important; float: none;&quot;&gt;Document card&lt;/span&gt;" style="rounded=1;whiteSpace=wrap;html=1;" vertex="1" parent="6FosMGZivHRgjgasGcRN-1">
          <mxGeometry x="315" y="105" width="245" height="40" as="geometry" />
        </mxCell>
        <mxCell id="6FosMGZivHRgjgasGcRN-19" value="Props:&lt;div&gt;- Seller id&lt;/div&gt;" style="text;html=1;align=left;verticalAlign=middle;resizable=0;points=[];autosize=1;strokeColor=none;fillColor=none;" vertex="1" parent="6FosMGZivHRgjgasGcRN-1">
          <mxGeometry x="25" y="35" width="70" height="40" as="geometry" />
        </mxCell>
        <mxCell id="6FosMGZivHRgjgasGcRN-2" value="Legal docs pegasus" style="ellipse;shape=cloud;whiteSpace=wrap;html=1;" vertex="1" parent="1">
          <mxGeometry x="90" y="20" width="200" height="110" as="geometry" />
        </mxCell>
        <mxCell id="6FosMGZivHRgjgasGcRN-3" value="" style="endArrow=classic;html=1;rounded=0;" edge="1" parent="1" source="6FosMGZivHRgjgasGcRN-2" target="6FosMGZivHRgjgasGcRN-4">
          <mxGeometry width="50" height="50" relative="1" as="geometry">
            <mxPoint x="190" y="120" as="sourcePoint" />
            <mxPoint x="190" y="230" as="targetPoint" />
          </mxGeometry>
        </mxCell>
        <mxCell id="6FosMGZivHRgjgasGcRN-4" value="Query client provider" style="shape=cylinder3;whiteSpace=wrap;html=1;boundedLbl=1;backgroundOutline=1;size=15;" vertex="1" parent="1">
          <mxGeometry x="350" y="120" width="90" height="90" as="geometry" />
        </mxCell>
        <mxCell id="6FosMGZivHRgjgasGcRN-5" value="" style="endArrow=classic;html=1;rounded=0;" edge="1" parent="1">
          <mxGeometry width="50" height="50" relative="1" as="geometry">
            <mxPoint x="384.5" y="210" as="sourcePoint" />
            <mxPoint x="384.5" y="280" as="targetPoint" />
          </mxGeometry>
        </mxCell>
        <mxCell id="6FosMGZivHRgjgasGcRN-6" value="" style="shape=flexArrow;endArrow=classic;html=1;rounded=0;width=30;endSize=12.16;" edge="1" parent="1">
          <mxGeometry width="50" height="50" relative="1" as="geometry">
            <mxPoint x="450" y="164.5" as="sourcePoint" />
            <mxPoint x="575" y="164.5" as="targetPoint" />
          </mxGeometry>
        </mxCell>
        <mxCell id="6FosMGZivHRgjgasGcRN-7" value="Package export" style="edgeLabel;html=1;align=center;verticalAlign=middle;resizable=0;points=[];" vertex="1" connectable="0" parent="6FosMGZivHRgjgasGcRN-6">
          <mxGeometry x="-0.44" y="1" relative="1" as="geometry">
            <mxPoint x="14" y="1" as="offset" />
          </mxGeometry>
        </mxCell>
        <mxCell id="6FosMGZivHRgjgasGcRN-8" value="Data" style="swimlane;fontStyle=0;childLayout=stackLayout;horizontal=1;startSize=30;horizontalStack=0;resizeParent=1;resizeParentMax=0;resizeLast=0;collapsible=1;marginBottom=0;whiteSpace=wrap;html=1;" vertex="1" parent="1">
          <mxGeometry x="55" y="140" width="160" height="120" as="geometry" />
        </mxCell>
        <mxCell id="6FosMGZivHRgjgasGcRN-9" value="Available templates&lt;span style=&quot;white-space: pre;&quot;&gt;&#x9;&lt;/span&gt;" style="text;strokeColor=none;fillColor=none;align=left;verticalAlign=middle;spacingLeft=4;spacingRight=4;overflow=hidden;points=[[0,0.5],[1,0.5]];portConstraint=eastwest;rotatable=0;whiteSpace=wrap;html=1;" vertex="1" parent="6FosMGZivHRgjgasGcRN-8">
          <mxGeometry y="30" width="160" height="30" as="geometry" />
        </mxCell>
        <mxCell id="6FosMGZivHRgjgasGcRN-10" value="Sent documents + status" style="text;strokeColor=none;fillColor=none;align=left;verticalAlign=middle;spacingLeft=4;spacingRight=4;overflow=hidden;points=[[0,0.5],[1,0.5]];portConstraint=eastwest;rotatable=0;whiteSpace=wrap;html=1;" vertex="1" parent="6FosMGZivHRgjgasGcRN-8">
          <mxGeometry y="60" width="160" height="30" as="geometry" />
        </mxCell>
        <mxCell id="6FosMGZivHRgjgasGcRN-11" value="Plan + user role" style="text;strokeColor=none;fillColor=none;align=left;verticalAlign=middle;spacingLeft=4;spacingRight=4;overflow=hidden;points=[[0,0.5],[1,0.5]];portConstraint=eastwest;rotatable=0;whiteSpace=wrap;html=1;" vertex="1" parent="6FosMGZivHRgjgasGcRN-8">
          <mxGeometry y="90" width="160" height="30" as="geometry" />
        </mxCell>
        <mxCell id="6FosMGZivHRgjgasGcRN-22" value="Collapsible + Documents status" style="shape=cube;whiteSpace=wrap;html=1;boundedLbl=1;backgroundOutline=1;darkOpacity=0.05;darkOpacity2=0.1;" vertex="1" parent="1">
          <mxGeometry x="440" y="570" width="120" height="80" as="geometry" />
        </mxCell>
        <mxCell id="6FosMGZivHRgjgasGcRN-23" value="" style="shape=flexArrow;endArrow=classic;html=1;rounded=0;" edge="1" parent="1">
          <mxGeometry width="50" height="50" relative="1" as="geometry">
            <mxPoint x="390" y="460" as="sourcePoint" />
            <mxPoint x="390" y="560" as="targetPoint" />
          </mxGeometry>
        </mxCell>
        <mxCell id="6FosMGZivHRgjgasGcRN-24" value="Export variants" style="text;html=1;align=center;verticalAlign=middle;resizable=0;points=[];autosize=1;strokeColor=none;fillColor=none;" vertex="1" parent="1">
          <mxGeometry x="425" y="480" width="100" height="30" as="geometry" />
        </mxCell>
        <mxCell id="6FosMGZivHRgjgasGcRN-25" value="Dropdown" style="shape=cube;whiteSpace=wrap;html=1;boundedLbl=1;backgroundOutline=1;darkOpacity=0.05;darkOpacity2=0.1;" vertex="1" parent="1">
          <mxGeometry x="640" y="570" width="120" height="80" as="geometry" />
        </mxCell>
        <mxCell id="6FosMGZivHRgjgasGcRN-26" value="Plain" style="shape=cube;whiteSpace=wrap;html=1;boundedLbl=1;backgroundOutline=1;darkOpacity=0.05;darkOpacity2=0.1;" vertex="1" parent="1">
          <mxGeometry x="215" y="570" width="120" height="80" as="geometry" />
        </mxCell>
      </root>
    </mxGraphModel>
  </diagram>
</mxfile>
